# xmcd
#
# Track frame offsets:
#	150
#	4104
#	21598
#	49310
#	76742
#	97548
#	119669
#	136008
#	161586
#	179964
#	198771
#	216968
#	237535
#	260685
#	273838
#	294093
#	301583
#
# Disc length: 4310 seconds
#
# Revision: 0
# Processed by: cddbd v1.5.2PL0 Copyright (c) Steve Scherf et al.
# Submitted via: EZCDAudioConverter 1.3.4.1
#
DISCID=e710d411
DTITLE=Gene Dunlap - It's Just The Way I Feel - Party In Me
DYEAR=2014
DGENRE=Soul
TTITLE0=The Intro
TTITLE1=Rock Radio
TTITLE2=Before You Break My Heart
TTITLE3=I Got You
TTITLE4=Love Dancin'
TTITLE5=It's Just The Way I Feel
TTITLE6=Should I Take Her Back, Should I Let Her Go 
TTITLE7=Surest Things Can Change 
TTITLE8=Party In Me
TTITLE9=Jam City
TTITLE10=Something Special
TTITLE11=This One's On Me
TTITLE12=Take My Love
TTITLE13=Our Moments Together
TTITLE14=Something Inside My Head
TTITLE15=Corner Pocket
TTITLE16=There Will Never Be Another (Like You)  
EXTD=
EXTT0=
EXTT1=
EXTT2=
EXTT3=
EXTT4=
EXTT5=
EXTT6=
EXTT7=
EXTT8=
EXTT9=
EXTT10=
EXTT11=
EXTT12=
EXTT13=
EXTT14=
EXTT15=
EXTT16=
PLAYORDER=
